# xmcd
#
# Track frame offsets:
#	182
#	13392
#	32910
#	59450
#	76327
#	93740
#	112997
#	133212
#	152940
#	166847
#	198170
#
# Disc length: 2928 seconds
#
# Revision: 0
# Processed by: cddbd v1.5PL3 Copyright (c) Steve Scherf et al.
# Submitted via: audiograbber 1.80
#
DISCID=930b6e0b
DTITLE=Kevin Flynn - ... Ain't That The Blues
DYEAR=1900
DGENRE=
TTITLE0=Comin' Up For Air
TTITLE1=Ain't That The Blues
TTITLE2=Ther Must Be A Better World
TTITLE3=Heartbreakin' Woman
TTITLE4=From 4 Till Late
TTITLE5=Undercover Agent Fort The Blues
TTITLE6=Since I Met You Baby
TTITLE7=32/20 Blues
TTITLE8=Travellin' Light
TTITLE9=Politically Incorrect
TTITLE10=Blues In A Bottle
EXTD=
EXTT0=
EXTT1=
EXTT2=
EXTT3=
EXTT4=
EXTT5=
EXTT6=
EXTT7=
EXTT8=
EXTT9=
EXTT10=
PLAYORDER=
